<?xml version="1.0" standalone="no"?>
<!DOCTYPE svg PUBLIC "-//W3C//DTD SVG 1.1//EN" "http://www.w3.org/Graphics/SVG/1.1/DTD/svg11.dtd" >
<!--
2013-9-30: Created.
-->
<svg>
<metadata>
Created by iconfont
</metadata>
<defs>

<font id="iconfont" horiz-adv-x="1024" >
  <font-face
    font-family="iconfont"
    font-weight="500"
    font-stretch="normal"
    units-per-em="1024"
    ascent="896"
    descent="-128"
  />
    <missing-glyph />
    
    <glyph glyph-name="down" unicode="&#58882;" d="M819.2-128l819.2 1024H0l819.2-1024z"  horiz-adv-x="1638" />

    
    <glyph glyph-name="history" unicode="&#58898;" d="M192 384a384 384 0 1 0 384-384c-106.24 0-201.813333 43.093333-271.36 112.64l60.586667 60.586667A296.277333 296.277333 0 0 1 576 85.33333300000004c165.12 0 298.666667 133.546667 298.666667 298.666667s-133.546667 298.666667-298.666667 298.666667-298.666667-133.546667-298.666667-298.666667h128l-172.373333-171.946667-2.986667 5.973334L64 384h128z m341.333333-42.666667V554.666667H597.333333v-177.066667l150.186667-89.173333-32.853333-54.613334L533.333333 341.33333300000004z"  horiz-adv-x="1024" />

    
    <glyph glyph-name="image" unicode="&#58932;" d="M838.713 5.44500000000005h-653.43c-60.146 0-108.898 48.755-108.898 108.9V676.547c0 60.147 48.752 108.904 108.897 108.904h653.43c60.146 0 108.903-48.757 108.903-108.904v-562.202c0-60.145-48.757-108.9-108.902-108.9z m54.453 671.102c0 30.066-24.382 54.45-54.455 54.45H185.282c-30.07 0-54.453-24.384-54.453-54.45v-520.852l217.81 199.75 110.495-111.928L729.81 518.81l163.357-166.844V676.547h-0.001zM294.19 458.727c-60.15 0-108.908 48.758-108.908 108.908 0 60.151 48.758 108.908 108.908 108.908 60.146 0 108.902-48.757 108.902-108.908 0-60.145-48.756-108.907-108.902-108.907z m0 0"  horiz-adv-x="1024" />

    
    <glyph glyph-name="hr" unicode="&#58923;" d="M130 400h766.2v-30.6H130z"  horiz-adv-x="1024" />

    
    <glyph glyph-name="save" unicode="&#59075;" d="M384 742.4h51.2a25.6 25.6 0 0 0 25.6-25.6v-102.4a25.6 25.6 0 0 0-25.6-25.6h-51.2a25.6 25.6 0 0 0-25.6 25.6v102.4a25.6 25.6 0 0 0 25.6 25.6zM256 384v-256h502.784v256z m0 332.8V486.4h307.2V716.8a25.6 25.6 0 0 0 25.6 25.6h66.048a25.088 25.088 0 0 0 18.432-7.68l189.44-189.44a25.088 25.088 0 0 0 7.68-18.432v-475.648a25.6 25.6 0 0 0-25.6-25.6h-665.6a25.6 25.6 0 0 0-25.6 25.6v665.6a25.6 25.6 0 0 0 25.6 25.6h51.2a25.6 25.6 0 0 0 25.6-25.6z"  horiz-adv-x="1024" />

    
    <glyph glyph-name="bold" unicode="&#58931;" d="M66.358234 829.665919C65.398489 846.781378 64.118828 863.73688 64.118828 885.171193h61.903577C286.139924 888.690259 446.897273 893.808901 607.974537 895.728392a331.592024 331.592024 0 0 0 229.699058-79.978781c63.983025-55.025401 88.616489-172.274293 51.346377-248.893965-23.033889-47.987268-63.983025-74.060351-107.171566-97.254197-15.995756-8.317793-31.991512-15.995756-50.066717-25.273295 20.794483-7.358048 38.229857-12.636647 55.025401-19.67478A279.925732 279.925732 0 0 0 927.889659 309.803845c46.387693-79.978781 39.669475-162.836797 6.398303-245.214941s-99.333646-123.647195-175.953318-152.279599a548.174562 548.174562 0 0 0-222.820882-28.792361c-147.480871 7.518005-294.321913-2.559321-441.162954-11.197029C84.593396-128 74.51607-128 64.118828-128v61.743619l79.978781 15.995756h5.2786c41.908881 10.237284 43.348499 10.877114 49.586844 56.944892a600.320727 600.320727 0 0 1 6.078387 83.017974c0 110.370717 0 220.581477-1.279661 330.952194-1.759533 116.928977-5.438557 234.017912-8.637708 350.94689-0.799788 31.991512-3.519066 35.670536-34.07096 41.908881s-62.063534 9.917369-93.895089 15.03601zM496.004244 396.340886c-26.23304-1.599576-47.987268-3.519066-70.061412-4.478812-13.596393 0-19.03495-5.91843-19.03495-21.594271 0-102.212882-0.959745-204.265806 0-306.478687 0-26.712913 4.158897-53.265868 5.758472-79.978781a24.633464 24.633464 0 0 1 19.03495-23.353804C496.004244-64.81676300000004 559.987268-58.41846099999998 623.970293-35.864445000000046a161.397179 161.397179 0 0 1 109.410972 122.367535 466.916121 466.916121 0 0 1 9.757411 110.690632 195.628097 195.628097 0 0 1-163.156712 190.18954c-29.272234 4.478812-58.864383 6.398302-84.297635 8.957624z m-90.695937 71.50103a91.655683 91.655683 0 0 1 19.194907-4.318854c47.987268 1.919491 97.254197 1.919491 145.401423 7.19809a139.962866 139.962866 0 0 1 87.656744 45.587905 180.432129 180.432129 0 0 1 42.708669 110.050802c7.358048 74.060351-15.195968 139.482993-86.057168 173.553954a314.316608 314.316608 0 0 1-145.401424 27.832616c-22.074143 0-44.308244-4.638769-63.983024-6.878176v-353.026337z m0 0"  horiz-adv-x="1024" />

    
    <glyph glyph-name="formula" unicode="&#59015;" d="M448.479142 407.170448L280.508599 614.6706260000001c-6.568001 8.149186-0.851408 20.312151 9.730372 20.312151h161.280912c5.473334 0.364889 66.409787 3.648889 89.154531-28.218078 17.27141-24.2043 26.150374-58.017342 29.677634-74.558974 1.216296-5.716593 6.324742-9.852001 12.162965-9.852001h0.12163c7.176149 0 12.892743 6.081482 12.406224 13.257631l-8.878965 131.11676c-0.486519 6.568001-5.838223 11.676446-12.406224 11.676446H147.445765c-6.93289 0-12.406224-5.594964-12.406224-12.406224v-5.959853c0-2.919112 0.973037-5.716593 2.919111-8.027556l221.974107-264.666113c4.013778-4.743556 3.892149-11.676446-0.24326-16.298372L138.201912 119.02981399999999c-1.946074-2.310963-3.162371-5.230075-3.162371-8.270816v-8.392446c0-6.93289 5.594964-12.406224 12.406224-12.406224h437.86673c6.081482 0 11.311557 4.378667 12.284594 10.460149l25.298967 151.91543c1.094667 6.568001-3.162371 12.771113-9.608742 14.230669l-0.729778 0.121629c-6.203112 1.337926-12.527854-2.189334-14.473928-8.270816-4.621927-13.86578-15.082076-39.286376-36.488894-63.490676C530.092635 158.92433800000003 406.273654 164.15441299999998 406.273654 164.15441299999998H267.494227c-10.703409 0-16.420002 12.527854-9.487113 20.55541l190.472028 222.460625zM751.945112 383.452667l-7.662668 19.825632-9.122224 22.623114-11.919705 25.785486c-8.514075 18.487706-16.541632 27.73156-24.32593 27.731559-10.581779 0-19.095855-8.635705-25.663855-25.907115-1.946074-4.986816-9.487112-3.892149-9.608742 1.459556v0.12163c0 9.973631 5.959853 21.406818 17.879558 34.177931 11.919705 12.892743 22.623114 19.339114 31.988597 19.339114 18.487706 0 37.583561-25.907115 57.530823-77.599715l1.459556-3.770519c1.459556-3.770519 6.568001-4.257038 8.757335-0.851408l0.486518 0.729778c35.272598 54.246823 64.950232 81.491864 89.032902 81.491864 4.378667 0 9.243853-0.851408 14.717187-2.554223 3.52726-1.094667 4.621927-5.594964 2.067704-8.149186l-22.623114-23.109633c-1.216296-1.216296-3.040741-1.702815-4.743556-1.337926-1.824445 0.486519-3.648889 0.729778-5.473335 0.851407h-0.608148c-18.122817-0.243259-39.772895-20.55541-64.706972-60.936453l-5.959853-9.730372c-0.851408-1.337926-0.973037-2.919112-0.364889-4.378667l4.743557-12.527854c21.771707-58.382231 39.651265-87.573346 53.760304-87.573346 11.433187 0 20.433781 6.93289 27.001781 20.79867 1.824445 3.770519 7.176149 3.770519 8.878965 0.121629 0.486519-0.973037 0.729778-1.824445 0.729777-2.797482 0-8.027557-6.568001-17.636299-19.825632-28.947856s-24.569189-16.906521-34.177931-16.906521c-19.217484 0-38.799857 26.272004-58.74712 78.816012l-3.284 8.270816c-1.459556 3.892149-6.81126 4.257038-8.878964 0.729778l-1.946075-3.40563c-33.813042-56.314527-66.044898-84.410975-96.817199-84.410976-8.878964 0-16.663262 1.702815-23.474522 4.865186-3.162371 1.459556-3.770519 5.716593-1.216296 8.027557l20.67704 19.704003c1.702815 1.702815 4.378667 1.824445 6.446371 0.364889 4.257038-3.040741 8.878964-4.500297 14.230669-4.500297 18.730966 0 39.651265 18.366077 63.004157 55.09823l12.892743 20.312151 4.865186 8.149187z"  horiz-adv-x="1024" />

    
    <glyph glyph-name="undo" unicode="&#58880;" d="M880.2 539.2c21.1-49.3 31.8-101 31.8-155.2 0-54.1-10.7-105.9-31.8-155.2-21.1-49.3-49.6-91.8-85.5-127.6s-78.3-64.2-127.6-85.5C617.9-5.2999999999999545 566.2-16 512-16c-59.7 0-116.4 12.6-170.3 37.8-53.8 25.2-99.7 60.6-137.5 106.5-2.4 3.5-3.6 7.3-3.4 11.8 0.2 4.4 1.6 7.8 4.4 10.7l71.3 71.9c3.5 3.2 7.7 4.7 13.1 4.7 5.6-0.7 9.6-2.7 12-6.2 25.3-33 56.4-58.5 93.2-76.5s75.9-27 117.2-27c36.1 0 70.5 7 103.4 21.1 32.9 14 61.2 33.1 85.1 57.1 24 24 42.9 52.4 57.1 85.1 14 32.9 21.1 67.3 21.1 103.4s-7 70.5-21.1 103.4c-14.2 32.9-33.1 61.2-57.1 85.1-24 24-52.4 42.9-85.1 57.1-32.9 14-67.3 21.1-103.4 21.1-34.1 0-66.7-6.1-97.9-18.5-31.2-12.4-59-29.9-83.4-52.9l71.3-71.9c10.8-10.4 13.2-22.3 7.3-35.9-5.9-13.9-16.1-20.8-30.8-20.8H145.3c-8.9 0-16.9 3.3-23.4 9.9s-9.9 14.4-9.9 23.4v233c0 14.6 6.9 24.8 20.8 30.8 13.6 5.9 25.5 3.5 35.9-7.3l67.7-67.2c37.1 35.1 79.6 62.2 127.4 81.4 47.8 19.3 97.1 29 148.2 29 54.1 0 105.9-10.7 155.2-31.8s91.8-49.6 127.6-85.5c35.8-35.7 64.2-78.2 85.4-127.6z"  horiz-adv-x="1024" />

    
    <glyph glyph-name="full" unicode="&#58908;" d="M630.592 457.344a32 32 0 1 0-45.248 45.312l201.152 201.152h-50.304a32 32 0 1 0 0 64h128a32 32 0 0 0 32-32v-128a32 32 0 0 0-64 0v51.2l-201.6-201.6zM395.264 310.4a32 32 0 1 0 45.312-45.184L239.36 64h50.304a32 32 0 1 0 0-64h-128a32 32 0 0 0-32 32v128a32 32 0 0 0 64 0v-51.2l201.6 201.6z"  horiz-adv-x="1088" />

    
    <glyph glyph-name="publish" unicode="&#58881;" d="M591.458 895.98l0.005-169.91c-68.875 0-496.534-3.485-496.534-418.614 0-223.479 160.665-406.224 368.429-435.434-129.31 27.44-226.594 146.06-226.594 288.299 0 271.549 254.734 273.859 354.699 273.859v-199.589l330.239 329.437L591.458 895.98z"  horiz-adv-x="1024" />

    
    <glyph glyph-name="redo" unicode="&#59181;" d="M89.138 383.5c0 57.195 11.183 111.823 33.547 163.886 22.365 52.061 52.429 96.974 90.191 134.738 37.764 37.762 82.675 67.827 134.738 90.191 52.063 22.365 106.69 33.546 163.886 33.546 53.896 0.001 106.049-10.172 156.461-30.522 50.412-20.347 95.232-49.038 134.462-86.067l71.494 70.944c10.999 11.366 23.648 13.933 37.947 7.699 14.665-6.232 21.998-17.048 21.998-32.447v-246.378c0-9.533-3.483-17.783-10.449-24.748-6.967-6.965-15.216-10.449-24.748-10.449h-246.377c-15.398 0-26.215 7.333-32.447 21.998-6.232 14.298-3.666 26.948 7.699 37.947l75.344 75.894c-25.664 24.197-54.995 42.804-87.993 55.82-32.996 13.015-67.461 19.523-103.391 19.523-38.129 0-74.518-7.425-109.165-22.273-34.649-14.849-64.621-34.922-89.918-60.22-25.297-25.297-45.37-55.269-60.219-89.917-14.85-34.648-22.274-71.038-22.273-109.166 0-38.13 7.425-74.518 22.273-109.167 14.848-34.646 34.92-64.619 60.219-89.916 25.298-25.297 55.271-45.371 89.918-60.219 34.646-14.85 71.035-22.273 109.165-22.273 43.629 0 84.875 9.531 123.739 28.598 38.862 19.064 71.677 46.012 98.441 80.842 2.565 3.666 6.782 5.865 12.648 6.6 5.5 0 10.082-1.649 13.749-4.951l75.344-75.891c2.933-2.933 4.49-6.691 4.674-11.275 0.185-4.582-1.008-8.707-3.574-12.373-39.963-48.395-88.359-85.883-145.187-112.465-56.828-26.582-116.772-39.871-179.834-39.871-57.195 0-111.823 11.182-163.886 33.547-52.063 22.363-96.975 52.428-134.737 90.191-37.764 37.762-67.827 82.675-90.191 134.738-22.365 52.061-33.547 106.69-33.548 163.886z"  horiz-adv-x="1024" />

    
    <glyph glyph-name="video" unicode="&#58954;" d="M256.006827 853.330204a42.666382 42.666382 0 1 0 85.332764 0v-938.660408a42.666382 42.666382 0 1 0-85.332764 0zM554.671502 512.852474c0 23.039846 16.213225 33.279778 37.546417 23.039847l227.838481-114.345905c41.813055-21.333191 40.959727-55.466297 0-75.94616l-33.279778-17.066553-193.705376-96.426024c-21.333191-10.239932-38.399744 0-38.399744 23.039847zM0.008533 511.999147A41.813055 41.813055 0 0 0 41.821588 554.665529h255.998293a42.666382 42.666382 0 0 0 43.51971-42.666382 41.813055 41.813055 0 0 0-41.813054-42.666383h-255.998294A42.666382 42.666382 0 0 0 0.008533 511.999147zM0.008533 256.000853A41.813055 41.813055 0 0 0 41.821588 298.667236h255.998293a42.666382 42.666382 0 0 0 43.51971-42.666383 41.813055 41.813055 0 0 0-41.813054-42.666382h-255.998294A42.666382 42.666382 0 0 0 0.008533 256.000853zM1024.001707 511.999147a41.813055 41.813055 0 0 0 41.813054 42.666382h255.998294a42.666382 42.666382 0 0 0 41.813054-42.666382 41.813055 41.813055 0 0 0-41.813054-42.666383h-255.998294a42.666382 42.666382 0 0 0-41.813054 42.666383zM1024.001707 256.000853a41.813055 41.813055 0 0 0 41.813054 42.666383h255.998294a42.666382 42.666382 0 0 0 41.813054-42.666383 41.813055 41.813055 0 0 0-41.813054-42.666382h-255.998294a42.666382 42.666382 0 0 0-41.813054 42.666382zM1024.001707 853.330204a42.666382 42.666382 0 1 0 85.332764 0v-938.660408a42.666382 42.666382 0 1 0-85.332764 0zM1262.933447 895.996587H102.407851A101.54599 101.54599 0 0 1 0.008533 794.450597v-820.047866A103.252645 103.252645 0 0 1 102.407851-127.99658699999998h1160.525596a101.54599 101.54599 0 0 1 102.399318 101.54599V794.450597A103.252645 103.252645 0 0 1 1262.933447 895.996587z m17.066553-870.394198a68.266212 68.266212 0 0 0-67.412884-68.266211H152.754182a68.266212 68.266212 0 0 0-67.412884 68.266211V742.397611a68.266212 68.266212 0 0 0 67.412884 68.266211h1059.832934a68.266212 68.266212 0 0 0 67.412884-68.266211z"  horiz-adv-x="1365" />

    
    <glyph glyph-name="quote" unicode="&#58885;" d="M352.7 371.5h114.8v-306.1H161.4V297c0 253 102 388.5 306.1 406.4v-114.8c-76.5-21.4-114.8-82.7-114.8-184.1v-33z m395.2 0h114.8v-306.1H556.5V297c0 253 102 388.5 306.1 406.4v-114.8c-76.5-21.4-114.8-82.7-114.8-184.1v-33z"  horiz-adv-x="1024" />

    
    <glyph glyph-name="strikethrough" unicode="&#58938;" d="M992 424.4H645.6c-32.8 10.1-75.7 21.2-128.6 33.2-87.6 19.8-141.7 39.2-162.4 58-21.1 18.9-31.7 42.9-31.7 72.2 0 33.7 14.9 62.5 44.7 86.4C397.4 698 444.9 710 510.1 710c62.6 0 109.9-13.1 141.9-39.4 32-26.3 50.8-65.2 56.4-116.6l103.3 7.8c-1.9 47.8-15.2 90.5-40 128.3-24.8 37.8-60.3 66.4-106.3 85.8-46.1 19.4-99.3 29.2-159.7 29.2-54.8 0-104.6-9.3-149.4-27.8-44.8-18.5-78.9-45.6-102.2-81.4-23.3-35.7-35-74.1-35-115.2 0-37.4 9.5-71.2 28.6-101.3 13-20.6 30.6-38.8 52.8-54.8H32v-80.8h496.7c54-13.4 90-23.7 108-30.7 34.1-13 58.5-29 73.3-48 14.8-19.1 22.2-41.4 22.2-66.9 0-25.2-7.7-48.4-23-69.7-15.4-21.3-38.8-38-70.2-50.3-31.5-12.2-67.7-18.3-108.8-18.3-46.3 0-87.9 8.1-124.9 24.2s-64.3 37.2-81.9 63.3c-17.6 26.1-28.8 59.5-33.6 100.2L188 238.5c1.5-54.4 16.4-103.2 44.7-146.3C261 49 300 16.700000000000045 349.8-4.7000000000000455c49.8-21.5 111.5-32.2 185.2-32.2 58.1 0 110.4 10.6 156.9 31.9 46.5 21.3 82.1 51.1 106.9 89.4 24.8 38.3 37.2 79.1 37.2 122.5 0 43.7-11.3 82.3-33.9 115.8-4.9 7.3-10.4 14.3-16.4 21H992v80.7z"  horiz-adv-x="1024" />

    
    <glyph glyph-name="h3" unicode="&#59899;" d="M88 448h400V724c0 24.3 19.7 44 44 44s44-19.7 44-44v-680c0-24.3-19.7-44-44-44s-44 19.7-44 44V360H88v-316c0-24.3-19.7-44-44-44S0 19.700000000000045 0 44V724c0 24.3 19.7 44 44 44s44-19.7 44-44v-276zM815.551 298.198c13.128-0.47 26.257 0.469 39.385 2.813 13.129 2.344 24.85 6.447 35.165 12.308 10.316 5.86 18.638 13.948 24.968 24.263 6.33 10.315 9.494 22.975 9.494 37.978 0 21.1-7.15 37.978-21.45 50.638-14.301 12.66-32.704 18.989-55.21 18.989-14.066 0-26.257-2.813-36.572-8.44-10.315-5.626-18.872-13.245-25.67-22.857-6.799-9.612-11.84-20.395-15.121-32.352-3.283-11.956-4.69-24.263-4.22-36.923h-80.177c0.938 23.913 5.392 46.066 13.363 66.462 7.97 20.396 18.872 38.095 32.703 53.099 13.832 15.004 30.594 26.725 50.287 35.165C802.188 507.78 824.459 512 849.31 512c19.223 0 38.095-2.813 56.616-8.44 18.52-5.626 35.165-13.831 49.934-24.615 14.77-10.784 26.609-24.498 35.517-41.143 8.909-16.645 13.363-35.75 13.363-57.318 0-24.85-5.626-46.535-16.88-65.055-11.252-18.52-28.835-32-52.747-40.44v-1.407c28.132-5.626 50.052-19.575 65.759-41.846 15.707-22.27 23.56-49.348 23.56-81.23 0-23.444-4.688-44.425-14.065-62.946-9.378-18.52-22.037-34.227-37.979-47.12-15.942-12.894-34.462-22.858-55.561-29.89-21.1-7.034-43.37-10.55-66.814-10.55-28.601 0-53.568 4.103-74.902 12.308-21.334 8.205-39.15 19.81-53.451 34.813-14.3 15.004-25.202 33.055-32.704 54.154-7.502 21.099-11.487 44.542-11.956 70.33h80.177c-0.938-30.008 6.447-54.975 22.154-74.902s39.268-29.89 70.682-29.89c26.726 0 49.114 7.62 67.166 22.857 18.051 15.239 27.077 36.923 27.077 65.055 0 19.224-3.751 34.462-11.253 45.715-7.502 11.252-17.348 19.81-29.539 25.67-12.19 5.86-25.905 9.494-41.143 10.901-15.239 1.407-30.828 1.875-46.77 1.407v59.78z"  horiz-adv-x="1024" />

    
    <glyph glyph-name="link" unicode="&#59605;" d="M988.650333 31.453491999999983l-124.057602-124.057602c-46.786603-46.786603-122.595521-46.786603-169.382124 0L500.9731 101.63339699999995c-43.277608 43.277608-44.666585 110.53335-7.822135 157.539265l223.186717-225.526048c7.822135-7.822135 17.033248-13.158732 26.463673-17.61808 30.630604-24.855383 63.235018-25.805736 93.353893 4.31314l37.502387 34.87064c33.262351 33.262351 34.724432 68.279199 1.462081 101.541549l-119.598254 117.916861c-0.950353 0.877249-1.827602 1.169665-2.777954 2.046914L631.46386 399.313159a118.867213 118.867213 0 0 0 162.948966-4.240036l194.237507-194.237507c46.786603-46.786603 46.786603-122.595521 0-169.382124zM338.097238 551.296514l4.093828 4.166932a46.567291 46.567291 0 0 0 65.866765 0L684.318101 276.27901299999996a46.567291 46.567291 0 0 0 0-65.866764l-4.093828-4.093828a46.567291 46.567291 0 0 0-65.866764 0L338.097238 485.42975a46.567291 46.567291 0 0 0 0 65.866764z m-32.019581 176.838739c-3.508995 3.508995-7.968343 5.044181-11.842859 7.822135l-4.605556 4.605556c-33.262351 33.189247-65.355036 34.724432-98.617387 1.462082l-12.427691-11.550443c-1.096561-0.950353-2.485538-1.315873-3.5821-2.33933l-8.187655-8.187656-0.511729-0.804144-11.33113-10.526986c-33.262351-33.262351-36.186513-72.665443-2.924163-105.854689l44.081753-43.49692 191.459552-193.433362c-47.005915-37.356178-114.773386-36.113409-158.270306 7.383511L35.08088 567.452513a119.89067 119.89067 0 0 0 0 169.455228L159.138482 860.965343a119.89067 119.89067 0 0 0 169.382124 0l194.237506-194.237507c44.739689-44.739689 45.397626-115.285114 4.751765-162.364133L306.077657 728.135253z"  horiz-adv-x="1024" />

    
    <glyph glyph-name="italic" unicode="&#59046;" d="M682.667 810.667L512-42.66700000000003h170.667V-128h-512v85.333h170.666L512 810.667H341.333V896h512v-85.333H682.667z"  horiz-adv-x="1024" />

    
    <glyph glyph-name="h2" unicode="&#58893;" d="M88 448h400V724c0 24.3 19.7 44 44 44s44-19.7 44-44v-680c0-24.3-19.7-44-44-44s-44 19.7-44 44V360H88v-316c0-24.3-19.7-44-44-44S0 19.700000000000045 0 44V724c0 24.3 19.7 44 44 44s44-19.7 44-44v-276z m935.282-448H680c0.479 41.591 10.533 77.923 30.163 108.997 19.63 31.074 46.44 58.084 80.434 81.031 16.279 11.952 33.275 23.544 50.99 34.779 17.714 11.234 33.993 23.305 48.835 36.213 14.842 12.907 27.05 26.89 36.626 41.95 9.576 15.058 14.603 32.388 15.081 51.988 0 9.083-1.077 18.764-3.231 29.042-2.155 10.278-6.344 19.84-12.568 28.683-6.224 8.845-14.842 16.254-25.854 22.23-11.012 5.976-25.375 8.964-43.09 8.964-16.278 0-29.803-3.227-40.576-9.68-10.772-6.455-19.39-15.299-25.854-26.533-6.463-11.235-11.251-24.5-14.363-39.798-3.112-15.298-4.908-31.791-5.386-49.48h-81.87c0 27.728 3.71 53.423 11.13 77.087 7.422 23.664 18.553 44.101 33.395 61.311 14.842 17.21 32.916 30.715 54.222 40.516 21.305 9.8 46.081 14.7 74.33 14.7 30.641 0 56.255-5.02 76.843-15.059 20.587-10.04 37.224-22.707 49.912-38.005 12.688-15.298 21.665-31.91 26.931-49.838 5.267-17.927 7.9-35.018 7.9-51.272 0-20.078-3.112-38.244-9.336-54.498-6.224-16.254-14.603-31.193-25.136-44.818-10.533-13.625-22.502-26.174-35.908-37.647a538.302 538.302 0 0 0-41.653-32.27 1122.27 1122.27 0 0 0-43.09-28.683c-14.364-9.083-27.65-18.166-39.858-27.249-12.209-9.083-22.862-18.525-31.958-28.325-9.097-9.8-15.321-20.198-18.673-31.193h244.894V0z"  horiz-adv-x="1024" />

    
    <glyph glyph-name="audio" unicode="&#59141;" d="M260.256 539.424l204.288 163.968a32 32 0 0 0 52.032-24.96V68a32 32 0 0 0-51.968-24.992L254.688 210.55999999999995H96a32 32 0 0 0-32 32V507.424a32 32 0 0 0 32 32h164.256z m410.528-363.552a32 32 0 0 0-44.832 45.664 214.08 214.08 0 0 1 64.32 153.312 213.92 213.92 0 0 1-55.776 144.448 32 32 0 1 0 47.36 43.04 277.92 277.92 0 0 0 72.416-187.488 278.08 278.08 0 0 0-83.488-198.976zM822.912 37.120000000000005a32 32 0 1 0-45.888 44.608A419.008 419.008 0 0 1 896 374.84799999999996c0 108.704-41.376 210.848-114.432 288.384a32 32 0 0 0 46.592 43.872C912.32 617.8240000000001 960 500.064 960 374.84799999999996c0-127.84-49.76-247.904-137.088-337.728z"  horiz-adv-x="1024" />

    
    <glyph glyph-name="h1" unicode="&#59154;" d="M472.297-34.91V337.456H116.364V-34.91H23.273V802.909h93.09v-372.364H472.25V802.91h93.091v-837.818zM874.17-34.956v0.42H753.757V35.28H874.17V399.453a283.927 283.927 0 0 0-120.413-67.072v80.477a301.335 301.335 0 0 1 74.147 31.279 304.5 304.5 0 0 1 66.188 52.922h60.183v-461.731h93.09v-69.818h-93.09v-0.42z"  horiz-adv-x="1047" />

    
    <glyph glyph-name="h4" unicode="&#58976;" d="M816.426667 132.94933300000002h92.032v96.554667a21.333333 21.333333 0 0 0 21.333333 21.333333h37.973333a21.333333 21.333333 0 0 0 21.333334-21.333333v-96.554667h22.101333a12.8 12.8 0 0 0 12.8-12.8v-46.293333a12.8 12.8 0 0 0-12.8-12.8h-22.144v-39.722667a21.333333 21.333333 0 0 0-21.333333-21.333333h-37.930667a21.333333 21.333333 0 0 0-21.333333 21.333333v39.68H738.133333a12.8 12.8 0 0 0-12.8 12.8v49.706667a12.8 12.8 0 0 0 1.365334 5.717333l142.634666 285.610667a21.333333 21.333333 0 0 0 19.072 11.818667h62.634667a8.533333 8.533333 0 0 0 7.637333-12.373334l-142.250666-281.344zM128 426.666667h512v-85.333334H128v85.333334zM192 768a21.333333 21.333333 0 0 0 21.333333-21.333333v-725.333334a21.333333 21.333333 0 0 0-21.333333-21.333333h-42.666667a21.333333 21.333333 0 0 0-21.333333 21.333333v725.333334a21.333333 21.333333 0 0 0 21.333333 21.333333h42.666667zM618.666667 768a21.333333 21.333333 0 0 0 21.333333-21.333333v-725.333334a21.333333 21.333333 0 0 0-21.333333-21.333333h-42.666667a21.333333 21.333333 0 0 0-21.333333 21.333333v725.333334a21.333333 21.333333 0 0 0 21.333333 21.333333h42.666667z"  horiz-adv-x="1024" />

    


  </font>
</defs>
</svg>
